<?xml version="1.0" encoding="UTF-8" standalone="no"?>
<!DOCTYPE svg PUBLIC "-//W3C//DTD SVG 1.1//EN" "http://www.w3.org/Graphics/SVG/1.1/DTD/svg11.dtd">
<!-- Created with Vectornator (http://vectornator.io/) -->
<svg height="100%" stroke-miterlimit="10" style="fill-rule:nonzero;clip-rule:evenodd;stroke-linecap:round;stroke-linejoin:round;" version="1.1" viewBox="0 0 523.123 84" width="100%" xml:space="preserve" xmlns="http://www.w3.org/2000/svg" xmlns:vectornator="http://vectornator.io" xmlns:xlink="http://www.w3.org/1999/xlink">
<defs/>
<g id="Layer-1" vectornator:layerName="Layer 1"/>
<g id="Untitled" vectornator:layerName="Untitled"/>
<clipPath id="ArtboardFrame">
<rect height="84" width="523.123" x="0" y="0"/>
</clipPath>
<g clip-path="url(#ArtboardFrame)" id="Layer_1-2" vectornator:layerName="Layer_1-2">
<g opacity="1" vectornator:layerName="Group 1">
<g opacity="1" vectornator:layerName="Group 1">
<g opacity="1" vectornator:layerName="rect">
<clipPath clip-rule="nonzero" id="ClipPath">
<path d="M-4.61853e-14 13.0009L45.6087 13.0009L45.6087 13.0009L45.6087 70.9991L45.6087 70.9991L-4.61853e-14 70.9991L-4.61853e-14 70.9991L-4.61853e-14 13.0009L-4.61853e-14 13.0009Z"/>
</clipPath>
<g clip-path="url(#ClipPath)">
<path d="M1.79157 18.0804C1.79157 16.2644 3.26356 14.7919 5.08007 14.7919L30.1545 14.7919C31.0001 14.7919 31.8132 15.1178 32.4245 15.7013L42.772 25.5772C43.4216 26.1972 43.7893 27.0562 43.7899 27.954L43.8142 65.9109C43.8154 67.7292 42.3405 69.2035 40.5217 69.2012L5.07543 69.16C3.26066 69.1583 1.79099 67.6863 1.79099 65.8715L1.79099 18.0804L1.79157 18.0804Z" fill="none" opacity="1" stroke="#c2ae00" stroke-linecap="butt" stroke-linejoin="miter" stroke-width="2.86604" vectornator:layerName="path"/>
<path d="M7.64591 14.7959C4.39917 14.7959 1.76663 17.4279 1.76663 20.6752L1.76663 63.2772C1.76663 66.524 4.39859 69.1565 7.64591 69.1565L37.9187 69.1565C41.1654 69.1565 43.798 66.524 43.7974 63.2772L43.7957 26.511L34.7526 26.511C32.9366 26.5116 31.4641 25.0396 31.4641 23.2231L31.4641 14.7959L7.64591 14.7959ZM10.7071 28.3605L16.2563 28.3605C17.2458 28.3605 18.1059 29.118 18.1059 30.1075C18.1059 31.0969 17.2458 31.957 16.2563 31.957L10.7071 31.957C9.71703 31.957 8.96015 31.0969 8.96015 30.1075C8.96015 29.118 9.71761 28.3605 10.7071 28.3605ZM10.7071 40.1777L34.8558 40.1777C35.8458 40.1777 36.7054 41.0378 36.7054 42.0278C36.7054 43.0179 35.8453 43.7747 34.8558 43.7747L10.7071 43.7747C9.71703 43.7747 8.96015 43.0173 8.96015 42.0278C8.96015 41.0384 9.71761 40.1777 10.7071 40.1777ZM10.7071 52.0981L34.8558 52.0981C35.8458 52.0981 36.7054 52.8555 36.7054 53.845C36.7054 54.8344 35.8453 55.5919 34.8558 55.5919L10.7071 55.5919C9.71703 55.5919 8.96015 54.8344 8.96015 53.845C8.96015 52.8555 9.71703 52.0981 10.7071 52.0981Z" fill="#c2ae00" fill-rule="nonzero" opacity="1" stroke="none" vectornator:layerName="path"/>
</g>
</g>
</g>
<g opacity="1" vectornator:layerName="Group 2">
<g fill="#c2ae00" opacity="1" stroke="none" vectornator:layerName="Text 3">
<path d="M59.5959 65.7487L79.5616 13.7597L86.9734 13.7597L108.251 65.7487L100.414 65.7487L94.3497 50.003L72.6108 50.003L66.9013 65.7487L59.5959 65.7487ZM74.5968 44.3998L92.222 44.3998L86.7961 30.0018C85.1412 25.628 83.9118 22.0344 83.1079 19.221C82.446 22.5546 81.5121 25.8644 80.3063 29.1507L74.5968 44.3998Z"/>
<path d="M112.862 65.7487L112.862 28.0868L118.607 28.0868L118.607 33.7964C120.072 31.1248 121.426 29.3635 122.667 28.5124C123.908 27.6612 125.274 27.2357 126.763 27.2357C128.914 27.2357 131.101 27.9213 133.324 29.2925L131.125 35.2149C129.565 34.2929 128.004 33.8318 126.444 33.8318C125.049 33.8318 123.796 34.2515 122.685 35.0908C121.574 35.9301 120.782 37.0944 120.309 38.5839C119.599 40.8535 119.245 43.336 119.245 46.0311L119.245 65.7487L112.862 65.7487Z"/>
<path d="M147.58 65.7487L133.253 28.0868L139.991 28.0868L148.076 50.6414C148.951 53.0765 149.755 55.6062 150.488 58.2305C151.055 56.2445 151.847 53.8567 152.864 51.0669L161.233 28.0868L167.794 28.0868L153.538 65.7487L147.58 65.7487Z"/>
<path d="M199.214 53.6203L205.81 54.4359C204.77 58.2896 202.843 61.2803 200.03 63.4081C197.216 65.5359 193.623 66.5998 189.249 66.5998C183.74 66.5998 179.373 64.9034 176.145 61.5108C172.918 58.1182 171.305 53.3602 171.305 47.2369C171.305 40.9008 172.936 35.9833 176.199 32.4842C179.461 28.9852 183.693 27.2357 188.894 27.2357C193.93 27.2357 198.044 28.9497 201.236 32.3778C204.427 35.8059 206.023 40.6289 206.023 46.8468C206.023 47.2251 206.011 47.7925 205.988 48.549L177.901 48.549C178.137 52.6864 179.308 55.8544 181.412 58.0532C183.516 60.2519 186.14 61.3512 189.285 61.3512C191.625 61.3512 193.623 60.7365 195.278 59.5071C196.933 58.2778 198.245 56.3155 199.214 53.6203ZM178.256 43.3005L199.285 43.3005C199.001 40.1324 198.198 37.7564 196.874 36.1724C194.84 33.7136 192.204 32.4842 188.965 32.4842C186.034 32.4842 183.569 33.4654 181.571 35.4277C179.574 37.39 178.468 40.0142 178.256 43.3005Z"/>
<path d="M213.683 65.7487L213.683 13.7597L220.067 13.7597L220.067 65.7487L213.683 65.7487Z"/>
<path d="M255.742 53.6203L262.339 54.4359C261.298 58.2896 259.372 61.2803 256.558 63.4081C253.745 65.5359 250.151 66.5998 245.777 66.5998C240.269 66.5998 235.901 64.9034 232.674 61.5108C229.447 58.1182 227.833 53.3602 227.833 47.2369C227.833 40.9008 229.464 35.9833 232.727 32.4842C235.99 28.9852 240.221 27.2357 245.423 27.2357C250.458 27.2357 254.572 28.9497 257.764 32.3778C260.956 35.8059 262.551 40.6289 262.551 46.8468C262.551 47.2251 262.54 47.7925 262.516 48.549L234.429 48.549C234.666 52.6864 235.836 55.8544 237.94 58.0532C240.044 60.2519 242.668 61.3512 245.813 61.3512C248.153 61.3512 250.151 60.7365 251.806 59.5071C253.461 58.2778 254.773 56.3155 255.742 53.6203ZM234.784 43.3005L255.813 43.3005C255.53 40.1324 254.726 37.7564 253.402 36.1724C251.369 33.7136 248.733 32.4842 245.494 32.4842C242.562 32.4842 240.097 33.4654 238.1 35.4277C236.102 37.39 234.997 40.0142 234.784 43.3005Z"/>
<path d="M294.929 61.103C292.565 63.1126 290.289 64.5311 288.103 65.3586C285.916 66.186 283.569 66.5998 281.063 66.5998C276.926 66.5998 273.746 65.5891 271.524 63.5677C269.301 61.5463 268.19 58.9634 268.19 55.819C268.19 53.9749 268.61 52.2904 269.449 50.7655C270.288 49.2406 271.388 48.0171 272.747 47.095C274.106 46.173 275.637 45.4756 277.34 45.0027C278.593 44.6717 280.484 44.3526 283.014 44.0452C288.168 43.4305 291.962 42.6976 294.397 41.8465C294.421 40.9717 294.433 40.4162 294.433 40.1797C294.433 37.5791 293.83 35.7468 292.624 34.6829C290.993 33.2408 288.57 32.5197 285.354 32.5197C282.352 32.5197 280.135 33.0457 278.705 34.0978C277.275 35.1499 276.217 37.0117 275.531 39.6832L269.289 38.8321C269.857 36.1606 270.791 34.0032 272.091 32.3601C273.391 30.717 275.271 29.4521 277.73 28.5656C280.188 27.679 283.037 27.2357 286.276 27.2357C289.492 27.2357 292.104 27.614 294.114 28.3705C296.123 29.1271 297.601 30.0786 298.546 31.2253C299.492 32.3719 300.154 33.82 300.532 35.5695C300.745 36.6571 300.852 38.6194 300.852 41.4564L300.852 49.9676C300.852 55.9017 300.988 59.6549 301.259 61.2271C301.531 62.7993 302.069 64.3065 302.873 65.7487L296.206 65.7487C295.544 64.4247 295.118 62.8761 294.929 61.103ZM294.397 46.8468C292.08 47.7925 288.605 48.5963 283.971 49.2583C281.347 49.6366 279.491 50.0621 278.403 50.535C277.316 51.0078 276.477 51.6993 275.886 52.6096C275.294 53.5198 274.999 54.5305 274.999 55.6417C274.999 57.3439 275.643 58.7624 276.932 59.8972C278.22 61.0321 280.106 61.5995 282.588 61.5995C285.047 61.5995 287.234 61.0616 289.149 59.9859C291.064 58.9102 292.47 57.4385 293.369 55.5707C294.054 54.1286 294.397 52.0008 294.397 49.1874L294.397 46.8468Z"/>
<path d="M320.64 65.7487L306.845 13.7597L313.902 13.7597L321.81 47.8398C322.661 51.4097 323.394 54.956 324.009 58.4787C325.333 52.9228 326.113 49.7193 326.35 48.8682L336.244 13.7597L344.542 13.7597L351.989 40.0733C353.857 46.5986 355.205 52.7337 356.032 58.4787C356.694 55.1925 357.557 51.4215 358.621 47.166L366.778 13.7597L373.693 13.7597L359.437 65.7487L352.805 65.7487L341.847 26.1363C340.925 22.8264 340.381 20.7932 340.216 20.0367C339.672 22.4245 339.164 24.4577 338.691 26.1363L327.662 65.7487L320.64 65.7487Z"/>
<path d="M377.913 65.7487L377.913 28.0868L383.658 28.0868L383.658 33.7964C385.124 31.1248 386.477 29.3635 387.719 28.5124C388.96 27.6612 390.325 27.2357 391.815 27.2357C393.966 27.2357 396.153 27.9213 398.375 29.2925L396.176 35.2149C394.616 34.2929 393.056 33.8318 391.495 33.8318C390.1 33.8318 388.847 34.2515 387.736 35.0908C386.625 35.9301 385.833 37.0944 385.36 38.5839C384.651 40.8535 384.296 43.336 384.296 46.0311L384.296 65.7487L377.913 65.7487Z"/>
<path d="M402.205 21.1006L402.205 13.7597L408.589 13.7597L408.589 21.1006L402.205 21.1006ZM402.205 65.7487L402.205 28.0868L408.589 28.0868L408.589 65.7487L402.205 65.7487Z"/>
<path d="M432.242 60.0391L433.165 65.6777C431.368 66.056 429.76 66.2451 428.342 66.2451C426.025 66.2451 424.228 65.8787 422.951 65.1458C421.674 64.4129 420.776 63.4495 420.256 62.2555C419.736 61.0616 419.476 58.5496 419.476 54.7196L419.476 33.0516L414.795 33.0516L414.795 28.0868L419.476 28.0868L419.476 18.76L425.824 14.93L425.824 28.0868L432.242 28.0868L432.242 33.0516L425.824 33.0516L425.824 55.0742C425.824 56.8947 425.936 58.065 426.161 58.5851C426.385 59.1052 426.752 59.519 427.26 59.8263C427.768 60.1337 428.495 60.2873 429.441 60.2873C430.15 60.2873 431.084 60.2046 432.242 60.0391Z"/>
<path d="M464.266 53.6203L470.862 54.4359C469.822 58.2896 467.895 61.2803 465.081 63.4081C462.268 65.5359 458.674 66.5998 454.301 66.5998C448.792 66.5998 444.424 64.9034 441.197 61.5108C437.97 58.1182 436.356 53.3602 436.356 47.2369C436.356 40.9008 437.988 35.9833 441.25 32.4842C444.513 28.9852 448.745 27.2357 453.946 27.2357C458.982 27.2357 463.095 28.9497 466.287 32.3778C469.479 35.8059 471.075 40.6289 471.075 46.8468C471.075 47.2251 471.063 47.7925 471.039 48.549L442.952 48.549C443.189 52.6864 444.359 55.8544 446.463 58.0532C448.567 60.2519 451.192 61.3512 454.336 61.3512C456.677 61.3512 458.674 60.7365 460.329 59.5071C461.984 58.2778 463.296 56.3155 464.266 53.6203ZM443.307 43.3005L464.337 43.3005C464.053 40.1324 463.249 37.7564 461.925 36.1724C459.892 33.7136 457.256 32.4842 454.017 32.4842C451.085 32.4842 448.621 33.4654 446.623 35.4277C444.625 37.39 443.52 40.0142 443.307 43.3005Z"/>
<path d="M478.806 65.7487L478.806 28.0868L484.551 28.0868L484.551 33.7964C486.016 31.1248 487.37 29.3635 488.611 28.5124C489.852 27.6612 491.218 27.2357 492.707 27.2357C494.859 27.2357 497.045 27.9213 499.268 29.2925L497.069 35.2149C495.509 34.2929 493.948 33.8318 492.388 33.8318C490.993 33.8318 489.74 34.2515 488.629 35.0908C487.518 35.9301 486.726 37.0944 486.253 38.5839C485.544 40.8535 485.189 43.336 485.189 46.0311L485.189 65.7487L478.806 65.7487Z"/>
</g>
<path d="M508.697 21.293L508.697 14.871L506.254 14.871L506.254 13.7513L512.417 13.7513L512.417 14.871L509.956 14.871L509.956 21.293L508.697 21.293ZM513.259 21.293L513.259 13.7513L515.11 13.7513L517.016 19.7754L518.858 13.7513L520.671 13.7513L520.671 21.293L519.524 21.293L519.524 14.9635L517.581 21.293L516.442 21.293L514.416 14.871L514.416 21.293L513.259 21.293Z" fill="#c2ae00" opacity="1" stroke="none" vectornator:layerName="Text 4"/>
</g>
</g>
</g>
</svg>
