<?xml version="1.0" encoding="UTF-8" standalone="no"?><!DOCTYPE svg PUBLIC "-//W3C//DTD SVG 1.1//EN" "http://www.w3.org/Graphics/SVG/1.1/DTD/svg11.dtd"><svg width="100%" height="100%" viewBox="0 0 520 62.5" version="1.1" xmlns="http://www.w3.org/2000/svg" xmlns:xlink="http://www.w3.org/1999/xlink" xml:space="preserve" xmlns:serif="http://www.serif.com/" style="fill-rule:evenodd;clip-rule:evenodd;stroke-linejoin:round;stroke-miterlimit:2;"><g><path d="M58.223,57.74l18.653,-52.383l9.835,0l18.968,52.383l-8.664,0l-10.205,-29.142c-0.794,-2.369 -1.664,-5.158 -2.61,-8.366c-0.947,-3.209 -2.041,-7.06 -3.284,-11.556l1.62,0c-1.215,4.534 -2.293,8.424 -3.233,11.671c-0.94,3.247 -1.774,5.997 -2.502,8.251l-9.894,29.142l-8.684,0Zm10.107,-13.802l0,-6.697l27.242,0l0,6.697l-27.242,0Z" style="fill-rule:nonzero;"/><path d="M110.689,57.74l0,-39.305l7.484,0l0,6.313l0.422,0c0.723,-2.136 1.988,-3.813 3.796,-5.033c1.808,-1.22 3.861,-1.829 6.158,-1.829c0.494,0 1.061,0.018 1.699,0.054c0.638,0.036 1.162,0.081 1.57,0.134l0,7.382c-0.28,-0.085 -0.819,-0.175 -1.618,-0.271c-0.799,-0.096 -1.609,-0.144 -2.432,-0.144c-1.786,0 -3.389,0.378 -4.808,1.134c-1.419,0.756 -2.53,1.796 -3.334,3.121c-0.804,1.325 -1.205,2.852 -1.205,4.583l0,23.863l-7.733,0Z" style="fill-rule:nonzero;"/><path d="M148.941,57.74l-14.828,-39.305l8.35,0l7.779,22.341c0.865,2.456 1.604,4.919 2.217,7.389c0.613,2.47 1.25,4.918 1.913,7.345l-2.301,0c0.658,-2.427 1.293,-4.875 1.904,-7.342c0.611,-2.468 1.337,-4.932 2.179,-7.392l7.753,-22.341l8.312,0l-14.841,39.305l-8.435,0Z" style="fill-rule:nonzero;"/><path d="M192.64,58.559c-3.869,0 -7.205,-0.836 -10.01,-2.509c-2.804,-1.673 -4.962,-4.021 -6.474,-7.044c-1.512,-3.023 -2.267,-6.57 -2.267,-10.639c0,-4.036 0.742,-7.585 2.227,-10.649c1.485,-3.064 3.586,-5.459 6.303,-7.185c2.717,-1.726 5.901,-2.589 9.552,-2.589c2.246,0 4.417,0.367 6.512,1.1c2.095,0.734 3.974,1.887 5.637,3.46c1.663,1.573 2.98,3.612 3.952,6.115c0.972,2.504 1.458,5.527 1.458,9.072l0,2.744l-31.339,0l0,-5.774l27.352,0l-3.611,1.906c0,-2.401 -0.374,-4.521 -1.121,-6.361c-0.747,-1.839 -1.857,-3.277 -3.328,-4.312c-1.471,-1.035 -3.3,-1.553 -5.486,-1.553c-2.186,0 -4.053,0.527 -5.601,1.582c-1.548,1.055 -2.73,2.444 -3.544,4.168c-0.815,1.724 -1.222,3.604 -1.222,5.64l0,3.924c0,2.695 0.463,4.976 1.388,6.843c0.926,1.867 2.224,3.278 3.895,4.232c1.671,0.955 3.607,1.432 5.808,1.432c1.441,0 2.752,-0.207 3.931,-0.621c1.179,-0.414 2.194,-1.036 3.045,-1.867c0.851,-0.831 1.503,-1.859 1.957,-3.085l7.256,1.713c-0.618,2.036 -1.672,3.824 -3.164,5.364c-1.491,1.54 -3.345,2.74 -5.561,3.601c-2.216,0.861 -4.731,1.291 -7.545,1.291Z" style="fill-rule:nonzero;"/><rect x="215.999" y="5.357" width="7.733" height="52.383" style="fill-rule:nonzero;"/><path d="M249.094,58.559c-3.869,0 -7.205,-0.836 -10.01,-2.509c-2.804,-1.673 -4.962,-4.021 -6.474,-7.044c-1.512,-3.023 -2.267,-6.57 -2.267,-10.639c0,-4.036 0.742,-7.585 2.227,-10.649c1.485,-3.064 3.586,-5.459 6.303,-7.185c2.717,-1.726 5.901,-2.589 9.552,-2.589c2.246,0 4.417,0.367 6.512,1.1c2.095,0.734 3.974,1.887 5.637,3.46c1.663,1.573 2.98,3.612 3.952,6.115c0.972,2.504 1.458,5.527 1.458,9.072l0,2.744l-31.339,0l0,-5.774l27.352,0l-3.611,1.906c0,-2.401 -0.374,-4.521 -1.121,-6.361c-0.747,-1.839 -1.857,-3.277 -3.328,-4.312c-1.471,-1.035 -3.3,-1.553 -5.486,-1.553c-2.186,0 -4.053,0.527 -5.601,1.582c-1.548,1.055 -2.73,2.444 -3.544,4.168c-0.815,1.724 -1.222,3.604 -1.222,5.64l0,3.924c0,2.695 0.463,4.976 1.388,6.843c0.926,1.867 2.224,3.278 3.895,4.232c1.671,0.955 3.607,1.432 5.808,1.432c1.441,0 2.752,-0.207 3.931,-0.621c1.179,-0.414 2.194,-1.036 3.045,-1.867c0.851,-0.831 1.503,-1.859 1.957,-3.085l7.256,1.713c-0.618,2.036 -1.672,3.824 -3.164,5.364c-1.491,1.54 -3.345,2.74 -5.561,3.601c-2.216,0.861 -4.731,1.291 -7.545,1.291Z" style="fill-rule:nonzero;"/><path d="M284.153,58.604c-2.488,0 -4.738,-0.459 -6.748,-1.378c-2.01,-0.918 -3.603,-2.27 -4.777,-4.053c-1.174,-1.784 -1.761,-3.967 -1.761,-6.549c0,-2.233 0.431,-4.063 1.292,-5.491c0.861,-1.427 2.02,-2.56 3.477,-3.398c1.457,-0.838 3.082,-1.468 4.876,-1.89c1.794,-0.422 3.624,-0.741 5.49,-0.959c2.318,-0.279 4.202,-0.507 5.651,-0.684c1.449,-0.177 2.521,-0.469 3.214,-0.878c0.694,-0.409 1.041,-1.075 1.041,-1.998l0,-0.198c0,-1.467 -0.283,-2.709 -0.848,-3.726c-0.565,-1.017 -1.406,-1.797 -2.524,-2.341c-1.117,-0.544 -2.508,-0.816 -4.172,-0.816c-1.698,0 -3.16,0.263 -4.386,0.79c-1.226,0.527 -2.224,1.197 -2.992,2.011c-0.769,0.814 -1.341,1.667 -1.717,2.56l-7.278,-1.871c0.894,-2.357 2.173,-4.25 3.838,-5.68c1.665,-1.43 3.573,-2.472 5.727,-3.128c2.153,-0.655 4.387,-0.983 6.702,-0.983c1.578,0 3.258,0.189 5.039,0.566c1.781,0.378 3.455,1.056 5.022,2.036c1.567,0.98 2.846,2.364 3.836,4.153c0.99,1.789 1.485,4.105 1.485,6.948l0,26.094l-7.482,0l0,-5.382l-0.397,0c-0.509,1.015 -1.267,2.003 -2.274,2.963c-1.007,0.96 -2.282,1.747 -3.822,2.361c-1.541,0.614 -3.378,0.921 -5.512,0.921Zm1.717,-6.191c2.116,0 3.922,-0.415 5.419,-1.244c1.497,-0.83 2.645,-1.92 3.444,-3.271c0.799,-1.351 1.199,-2.787 1.199,-4.309l0,-5.05c-0.279,0.275 -0.812,0.526 -1.599,0.753c-0.787,0.227 -1.68,0.428 -2.68,0.603c-0.999,0.175 -1.972,0.323 -2.918,0.446c-0.946,0.123 -1.719,0.221 -2.32,0.296c-1.447,0.183 -2.776,0.497 -3.986,0.942c-1.21,0.444 -2.172,1.076 -2.884,1.896c-0.712,0.82 -1.069,1.906 -1.069,3.258c0,1.245 0.32,2.288 0.96,3.129c0.64,0.84 1.514,1.476 2.623,1.906c1.109,0.431 2.379,0.646 3.81,0.646Z" style="fill-rule:nonzero;"/><path d="M319.199,57.74l-14.204,-52.383l8.453,0l7.556,30.006c0.462,1.863 0.895,3.793 1.297,5.79c0.403,1.997 0.795,4.013 1.176,6.047c0.381,2.034 0.745,4.071 1.09,6.11l-1.169,0c0.377,-2.04 0.759,-4.077 1.147,-6.11c0.388,-2.034 0.798,-4.049 1.23,-6.047c0.432,-1.997 0.884,-3.927 1.354,-5.79l7.783,-30.006l8.783,0l7.726,30.006c0.49,1.863 0.946,3.793 1.369,5.79c0.423,1.997 0.838,4.013 1.244,6.047c0.407,2.034 0.799,4.071 1.176,6.11l-1.262,0c0.368,-2.04 0.742,-4.077 1.121,-6.11c0.379,-2.034 0.781,-4.049 1.205,-6.047c0.424,-1.997 0.855,-3.927 1.294,-5.79l7.534,-30.006l8.511,0l-14.261,52.383l-9.263,0l-8.317,-31.055c-0.641,-2.431 -1.23,-5.072 -1.767,-7.925c-0.537,-2.853 -1.084,-5.998 -1.642,-9.436l1.824,0c-0.583,3.284 -1.115,6.322 -1.597,9.113c-0.482,2.791 -1.084,5.541 -1.805,8.249l-8.294,31.055l-9.292,0Z" style="fill-rule:nonzero;"/><path d="M376.162,57.74l0,-39.305l7.484,0l0,6.313l0.422,0c0.723,-2.136 1.988,-3.813 3.796,-5.033c1.808,-1.22 3.861,-1.829 6.158,-1.829c0.494,0 1.061,0.018 1.699,0.054c0.638,0.036 1.162,0.081 1.57,0.134l0,7.382c-0.28,-0.085 -0.819,-0.175 -1.618,-0.271c-0.799,-0.096 -1.609,-0.144 -2.432,-0.144c-1.786,0 -3.389,0.378 -4.808,1.134c-1.419,0.756 -2.53,1.796 -3.334,3.121c-0.804,1.325 -1.205,2.852 -1.205,4.583l0,23.863l-7.733,0Z" style="fill-rule:nonzero;"/><path d="M402.593,57.74l0,-39.305l7.734,0l0,39.305l-7.734,0Zm3.902,-45.316c-1.336,0 -2.479,-0.445 -3.428,-1.336c-0.949,-0.891 -1.424,-1.969 -1.424,-3.234c0,-1.289 0.475,-2.379 1.424,-3.27c0.949,-0.891 2.092,-1.336 3.428,-1.336c1.336,0 2.484,0.445 3.445,1.336c0.961,0.891 1.441,1.98 1.441,3.27c0,1.266 -0.48,2.344 -1.441,3.234c-0.961,0.891 -2.109,1.336 -3.445,1.336Z" style="fill-rule:nonzero;"/><path d="M435.567,18.435l0,6.287l-21.32,0l0,-6.287l21.32,0Zm-15.579,-9.352l7.733,0l0,38.024c0,1.589 0.331,2.752 0.993,3.489c0.662,0.737 1.76,1.105 3.293,1.105c0.402,0 0.931,-0.048 1.586,-0.144c0.655,-0.096 1.217,-0.191 1.686,-0.285l1.371,6.198c-0.829,0.272 -1.714,0.47 -2.653,0.594c-0.94,0.124 -1.86,0.185 -2.76,0.185c-3.58,0 -6.349,-0.917 -8.309,-2.75c-1.96,-1.833 -2.94,-4.418 -2.94,-7.756l0,-38.662Z" style="fill-rule:nonzero;"/><path d="M457.493,58.559c-3.869,0 -7.205,-0.836 -10.01,-2.509c-2.804,-1.673 -4.962,-4.021 -6.474,-7.044c-1.512,-3.023 -2.267,-6.57 -2.267,-10.639c0,-4.036 0.742,-7.585 2.227,-10.649c1.485,-3.064 3.586,-5.459 6.303,-7.185c2.717,-1.726 5.901,-2.589 9.552,-2.589c2.246,0 4.417,0.367 6.512,1.1c2.095,0.734 3.974,1.887 5.637,3.46c1.663,1.573 2.98,3.612 3.952,6.115c0.972,2.504 1.458,5.527 1.458,9.072l0,2.744l-31.339,0l0,-5.774l27.352,0l-3.611,1.906c0,-2.401 -0.374,-4.521 -1.121,-6.361c-0.747,-1.839 -1.857,-3.277 -3.328,-4.312c-1.471,-1.035 -3.3,-1.553 -5.486,-1.553c-2.186,0 -4.053,0.527 -5.601,1.582c-1.548,1.055 -2.73,2.444 -3.544,4.168c-0.815,1.724 -1.222,3.604 -1.222,5.64l0,3.924c0,2.695 0.463,4.976 1.388,6.843c0.926,1.867 2.224,3.278 3.895,4.232c1.671,0.955 3.607,1.432 5.808,1.432c1.441,0 2.752,-0.207 3.931,-0.621c1.179,-0.414 2.194,-1.036 3.045,-1.867c0.851,-0.831 1.503,-1.859 1.957,-3.085l7.256,1.713c-0.618,2.036 -1.672,3.824 -3.164,5.364c-1.491,1.54 -3.345,2.74 -5.561,3.601c-2.216,0.861 -4.731,1.291 -7.545,1.291Z" style="fill-rule:nonzero;"/><path d="M480.853,57.74l0,-39.305l7.484,0l0,6.313l0.422,0c0.723,-2.136 1.988,-3.813 3.796,-5.033c1.808,-1.22 3.861,-1.829 6.158,-1.829c0.494,0 1.061,0.018 1.699,0.054c0.638,0.036 1.162,0.081 1.57,0.134l0,7.382c-0.28,-0.085 -0.819,-0.175 -1.618,-0.271c-0.799,-0.096 -1.609,-0.144 -2.432,-0.144c-1.786,0 -3.389,0.378 -4.808,1.134c-1.419,0.756 -2.53,1.796 -3.334,3.121c-0.804,1.325 -1.205,2.852 -1.205,4.583l0,23.863l-7.733,0Z" style="fill-rule:nonzero;"/></g><path d="M515.27,11.985l-3.223,-7.537l1.469,0l2.158,5.339l2.17,-5.339l1.458,0l-3.199,7.537l-0.833,0Zm-3.577,0l0,-7.537l1.506,0l0,7.537l-1.506,0Zm6.458,0l0,-7.537l1.529,0l0,7.537l-1.529,0Zm-11.591,0l0,-6.862l1.534,0l0,6.862l-1.534,0Zm-2.278,-6.235l0,-1.303l6.09,0l0,1.303l-6.09,0Z" style="fill-rule:nonzero;"/><clipPath id="_clip1"><rect x="0" y="0" width="48.206" height="61.852"/></clipPath><g clip-path="url(#_clip1)"><g><path d="M9.272,0l18.099,0.004c2.808,0.001 5.468,1.277 7.226,3.466l11.549,14.383c1.32,1.644 2.041,3.69 2.042,5.799l0.016,28.842c0.003,5.118 -4.142,9.27 -9.26,9.276l-29.643,0.033c-0.003,0 -0.007,0 -0.01,0c-5.084,0 -9.268,-4.182 -9.27,-9.266l-0.021,-43.262c-0,-0.001 -0,-0.003 -0,-0.004c-0,-5.086 4.185,-9.27 9.27,-9.27c0.001,0 0.001,0 0.002,0l-0,-0Zm-0.001,3.732c-0,-0 -0.001,-0 -0.001,-0c-3.038,0 -5.538,2.5 -5.538,5.538c0,0.001 0,0.002 0,0.002l0.021,43.262c0.002,3.037 2.501,5.535 5.538,5.535c0.002,0 0.004,-0 0.006,-0l29.643,-0.033c3.057,-0.003 5.534,-2.484 5.532,-5.541l-0.016,-28.842c-0.001,-1.26 -0.431,-2.482 -1.22,-3.464l-11.549,-14.383c-1.05,-1.308 -2.64,-2.07 -4.317,-2.071l-18.099,-0.004l0,-0Z" style="fill:#ffbf00;fill-rule:nonzero;"/><path d="M9.272,0l16.982,0.004c3.071,0.001 5.561,2.491 5.561,5.562l0,5.527c0,5.104 4.126,9.248 9.231,9.27l2.835,0.012c2.381,0.01 4.306,1.943 4.308,4.324l0.016,27.795c0.003,5.118 -4.142,9.27 -9.26,9.276l-29.643,0.033c-0.003,0 -0.007,0 -0.01,0c-5.084,0 -9.268,-4.182 -9.27,-9.266l-0.021,-43.262c-0,-0.001 -0,-0.003 -0,-0.004c-0,-5.086 4.185,-9.27 9.27,-9.27c0.001,0 0.001,0 0.002,0l-0,-0Zm27.008,41.099l-24.356,0c-1.342,0.021 -2.434,1.13 -2.434,2.472c0,1.342 1.092,2.451 2.434,2.472l24.356,0c1.342,-0.021 2.434,-1.13 2.434,-2.472c0,-1.342 -1.092,-2.451 -2.434,-2.472m0,-12.669l-24.356,0c-1.342,0.021 -2.434,1.13 -2.434,2.472c0,1.342 1.092,2.451 2.434,2.472l24.356,0c1.342,-0.021 2.434,-1.13 2.434,-2.472c0,-1.342 -1.092,-2.451 -2.434,-2.472m-19.631,-12.669l-4.725,0c-1.365,0 -2.472,1.107 -2.472,2.472c0,1.365 1.107,2.472 2.472,2.472l4.725,0c1.365,0 2.472,-1.107 2.472,-2.472c0,-1.365 -1.107,-2.472 -2.472,-2.472" style="fill:#ffbf00;fill-rule:nonzero;"/></g></g></svg>