<?xml version="1.0" encoding="UTF-8"?>
<svg id="Layer_2" xmlns="http://www.w3.org/2000/svg" xmlns:xlink="http://www.w3.org/1999/xlink" viewBox="0 0 786.38 1000" style="width: initial;">
  <defs>
    <style>
      .cls-1, .cls-2 {
        fill: none;
      }

      .cls-2 {
        stroke: #c2ae00;
        stroke-miterlimit: 10;
        stroke-width: 61.77px;
      }

      .cls-3 {
        fill: #c2ae00;
      }

      .cls-4 {
        clip-path: url(#clippath);
      }
    </style>
    <clipPath id="clippath">
      <rect class="cls-1" width="786.38" height="1000"/>
    </clipPath>
  </defs>
  <g id="Layer_1-2" data-name="Layer_1">
    <g class="cls-4">
      <g id="Layer">
        <g>
          <path class="cls-2" d="M30.89,87.58c0-31.31,25.38-56.7,56.7-56.7h432.33c14.58,0,28.6,5.62,39.14,15.68l178.41,170.28c11.2,10.69,17.54,25.5,17.55,40.98l.42,654.45c.02,31.35-25.41,56.77-56.77,56.73l-611.16-.71c-31.29-.03-56.63-25.41-56.63-56.7V87.58Z"/>
          <path class="cls-3" d="M131.83,30.95c-55.98,0-101.37,45.38-101.37,101.37v734.54c0,55.98,45.38,101.37,101.37,101.37h521.96c55.98,0,101.37-45.39,101.36-101.37l-.03-633.92h-155.92c-31.31.01-56.7-25.37-56.7-56.69V30.95H131.83ZM184.61,264.83h95.68c17.06,0,31.89,13.06,31.89,30.12,0,17.06-14.83,31.89-31.89,31.89h-95.68c-17.07,0-30.12-14.83-30.12-31.89s13.06-30.12,30.12-30.12ZM184.61,468.58h416.37c17.07,0,31.89,14.83,31.89,31.9s-14.83,30.12-31.89,30.12H184.61c-17.07,0-30.12-13.06-30.12-30.12s13.06-31.9,30.12-31.9ZM184.61,674.11h416.37c17.07,0,31.89,13.06,31.89,30.12s-14.83,30.12-31.89,30.12H184.61c-17.07,0-30.12-13.06-30.12-30.12s13.05-30.12,30.12-30.12Z"/>
        </g>
      </g>
    </g>
  </g>
</svg>